# xmcd
#
# Track frame offsets: 
#        150
#        19332
#        37352
#        55132
#        72987
#        93350
#        107500
#        122882
#        134810
#        151447
#        187512
#        204020
#
# Disc length: 2826 seconds
#
# Revision: 22
# Processed by: cddbd v1.5.2PL0 Copyright (c) Steve Scherf et al.
# Submitted via: ExactAudioCopyFreeDBPlugin 1.0
#
DISCID=a50b080c
DTITLE=Janis Joplin - Janis Joplin's Greatest Hits (1999 Remastered)
DYEAR=1973
DGENRE=Blues Rock
TTITLE0=Big Brother and The Holding Company - Piece Of My Heart
TTITLE1=Big Brother and The Holding Company - Summertime
TTITLE2=Kozmic Blues Band - Try (Just A Little Bit Harder)
TTITLE3=Full Tilt Boogie Band - Cry Baby
TTITLE4=Full Tilt Boogie Band - Me And Bobby McGee
TTITLE5=Big Brother and The Holding Company - Down On Me
TTITLE6=Full Tilt Boogie Band - Get It While You Can
TTITLE7=Big Brother and The Holding Company - Bye, Bye Baby
TTITLE8=Full Tilt Boogie Band - Move Over
TTITLE9=Full Tilt Boogie Band - Ball And Chain
TTITLE10=Kozmic Blues Band - Maybe (Bonus Track)
TTITLE11=Full Tilt Boogie Band - Mercedes Benz (Bonus Track)
EXTD=YEAR: 1999
EXTT0=
EXTT1=
EXTT2=
EXTT3=
EXTT4=
EXTT5=
EXTT6=
EXTT7=
EXTT8=
EXTT9=
EXTT10=
EXTT11=
PLAYORDER=
